# xmcd CD database file
#
# Track frame offsets:
#	150
#	18694
#	35762
#	52804
#	64545
#	80742
#	101617
#	121308
#	141713
#	161878
#	180814
#	201077
#	218680
#	236570
#	251494
#	268025
#	286690
#	306371
#	326557
#	340951
#
# Disc length: 4774 seconds
#
# Revision: 1
# Processed by: cddbd v1.5.2PL0 Copyright (c) Steve Scherf et al.
# Submitted via: CDex 1.51
#
DISCID=2812a414
DTITLE=Various Artist - ZM-POPBOX-3-DISC-2
DYEAR=1900
DGENRE=Blues
TTITLE0=Radiohead - Creep
TTITLE1=ABBA - Dancing Queen
TTITLE2=Katy Perry Ft Jucy J - Dark Horse (duet version)
TTITLE3=Paul Heaton and Jacqui Abbot - D.I.Y.
TTITLE4=Frozen - Do You Want To Be A Snowman
TTITLE5=Journey - Don't Stop Believing
TTITLE6=Human League The/ Don't You Want Me
TTITLE7=Diana Ross and Lionel Richie - Endless Love
TTITLE8=Clean Bandit Ft Sharna Bass - Extraordinary
TTITLE9=Pogues The Ft Kirsty MacColl - Fairytale Of New York
TTITLE10=Will.i.am Ft Miley Cyrus French Montana and Wiz Khalfa - Feelin' Myself
TTITLE11=Ella Henderson - Ghost
TTITLE12=Spandau Ballet - Gold
TTITLE13=Tom Jones - Green Green Grass Of Home
TTITLE14=Lion King - Hakuna Matata
TTITLE15=Pharrell Williams - Happy
TTITLE16=Avicii - Hey Brother
TTITLE17=Kieza - Hideaway
TTITLE18=Grease - Hopelessly Devoted To You (ZM)
TTITLE19=Katy Perry - Hot N Cold
EXTD=
EXTT0=
EXTT1=
EXTT2=
EXTT3=
EXTT4=
EXTT5=
EXTT6=
EXTT7=
EXTT8=
EXTT9=
EXTT10=
EXTT11=
EXTT12=
EXTT13=
EXTT14=
EXTT15=
EXTT16=
EXTT17=
EXTT18=
EXTT19=
PLAYORDER=
